#!OML:ASF H:\Dans Jumps\Project 1\Capture day 1\Session 1\subject.ASF
:FULLY-SPECIFIED
:DEGREES
409
root 0.498185 17.5789 7.01333 8.69783 -0.661554 -2.51293
lowerback -2.80394 0.174314 0.568181
upperback 1.52449 0.166864 1.43119
thorax 3.13636 0.07921 1.16202
lowerneck -12.4695 -0.162144 -1.90411
upperneck 35.8514 -0.660368 2.60733
head 14.4045 -0.191622 1.30311
rclavicle -3.08116e-015 7.7526e-015
rhumerus -31.4449 -18.0579 -76.9892
rradius 23.4254
rwrist 38.49
rhand -24.3446 -28.8825
rfingers 7.12502
rthumb 2.14453 -58.8515
lclavicle -3.08116e-015 7.7526e-015
lhumerus -30.7806 -6.13941 91.0806
lradius 24.9106
lwrist 14.1712
lhand -28.0911 -6.02433
lfingers 7.12502
lthumb -1.47394 23.9503
rfemur -13.783 -2.44832 21.0908
rtibia 23.5917
rfoot -16.1554 0.53453
rtoes 15.0423
lfemur -14.3171 9.24889 -17.4619
ltibia 24.1727
lfoot -13.9422 6.38847
ltoes -3.19389
410
root 0.494425 17.5807 7.01045 8.71294 -0.613198 -2.53668
lowerback -2.81219 0.181282 0.605867
upperback 1.51089 0.174412 1.44085
thorax 3.12697 0.083682 1.1512
lowerneck -12.4324 -0.185615 -1.92555
upperneck 35.8766 -0.691542 2.61261
head 14.4089 -0.207162 1.3046
rclavicle -4.84538e-015 -1.88845e-015
rhumerus -31.1721 -17.9267 -77.033
rradius 23.5953
rwrist 38.2433
rhand -24.3467 -28.9047
rfingers 7.12502
rthumb 2.14254 -58.8737
lclavicle -4.84538e-015 -1.88845e-015
lhumerus -30.6031 -6.13588 90.9796
lradius 25.123
lwrist 14.5404
lhand -28.3245 -6.21987
lfingers 7.12502
lthumb -1.69928 23.7531
rfemur -13.774 -2.52402 21.1327
rtibia 23.5284
rfoot -16.118 0.602989
rtoes 15.1494
lfemur -14.3233 9.19933 -17.4214
ltibia 24.1245
lfoot -13.9158 6.38864
ltoes -3.16667
411
root 0.490169 17.5827 7.007 8.73023 -0.570853 -2.55708
lowerback -2.8199 0.189741 0.631433
upperback 1.49944 0.184438 1.4501
thorax 3.11941 0.0891312 1.14691
lowerneck -12.4041 -0.206586 -1.93853
upperneck 35.8822 -0.719886 2.61501
head 14.4061 -0.220638 1.30354
rclavicle -4.19933e-015 -1.58034e-014
rhumerus -30.9096 -17.7849 -77.0841
rradius 23.7654
rwrist 38.0064
rhand -24.3637 -28.9427
rfingers 7.12502
rthumb 2.12609 -58.9118
lclavicle -4.19933e-015 -1.58034e-014
lhumerus -30.4218 -6.10154 90.8657
lradius 25.3063
lwrist 14.8053
lhand -28.5081 -6.42742
lfingers 7.12502
lthumb -1.87668 23.5441
rfemur -13.7708 -2.57992 21.1738
rtibia 23.4662
rfoot -16.0774 0.650298
rtoes 15.2414
lfemur -14.3322 9.15941 -17.3837
ltibia 24.072
lfoot -13.8838 6.38318
ltoes -3.13735
412
root 0.485443 17.5849 7.00311 8.74988 -0.538347 -2.57094
lowerback -2.82886 0.200921 0.642342
upperback 1.48933 0.198719 1.45736
thorax 3.11384 0.0964127 1.14904
lowerneck -12.3794 -0.223198 -1.93662
upperneck 35.8679 -0.742615 2.60935
head 14.3945 -0.230704 1.29707
rclavicle 2.18663e-015 8.24956e-015
rhumerus -30.6618 -17.6334 -77.1423
rradius 23.939
rwrist 37.7658
rhand -24.3789 -28.9951
rfingers 7.12502
rthumb 2.11141 -58.9644
lclavicle 2.18663e-015 8.24956e-015
lhumerus -30.2412 -6.03721 90.739
lradius 25.4639
lwrist 14.9623
lhand -28.6354 -6.59992
lfingers 7.12502
lthumb -1.99956 23.3705
rfemur -13.7762 -2.61348 21.2103
rtibia 23.4092
rfoot -16.0361 0.676675
rtoes 15.3092
lfemur -14.3439 9.1331 -17.3528
ltibia 24.0154
lfoot -13.8482 6.37032
ltoes -3.09663
413
root 0.480474 17.5871 6.999 8.77129 -0.513553 -2.57745
lowerback -2.84038 0.215004 0.642691
upperback 1.47945 0.217393 1.46038
thorax 3.10986 0.105708 1.15298
lowerneck -12.3576 -0.236803 -1.92038
upperneck 35.8401 -0.762739 2.59853
head 14.3772 -0.23836 1.28612
rclavicle -3.55328e-015 -5.06901e-015
rhumerus -30.4291 -17.479 -77.2065
rradius 24.1106
rwrist 37.5075
rhand -24.3893 -29.0428
rfingers 7.12502
rthumb 2.10135 -59.0122
lclavicle -3.55328e-015 -5.06901e-015
lhumerus -30.0647 -5.95486 90.6024
lradius 25.5975
lwrist 15.0292
lhand -28.7442 -6.76727
lfingers 7.12502
lthumb -2.10466 23.2021
rfemur -13.7882 -2.63553 21.2403
rtibia 23.3584
rfoot -15.9963 0.691996
rtoes 15.3605
lfemur -14.3576 9.12095 -17.3302
ltibia 23.9559
lfoot -13.8111 6.34699
ltoes -3.04713
414
root 0.475476 17.5893 6.99518 8.79046 -0.497687 -2.57245
lowerback -2.85643 0.232474 0.631359
upperback 1.47026 0.241162 1.45754
thorax 3.10904 0.117362 1.15776
lowerneck -12.3358 -0.249448 -1.89565
upperneck 35.8027 -0.783668 2.58782
head 14.3554 -0.245182 1.27344
rclavicle -2.45996e-015 1.59028e-015
rhumerus -30.2146 -17.3305 -77.2728
rradius 24.2765
rwrist 37.2337
rhand -24.3967 -29.0902
rfingers 7.12502
rthumb 2.09424 -59.0597
lclavicle -2.45996e-015 1.59028e-015
lhumerus -29.8973 -5.86791 90.4597
lradius 25.7104
lwrist 15.034
lhand -28.8167 -6.8988
lfingers 7.12502
lthumb -2.17464 23.0699
rfemur -13.8014 -2.65559 21.2576
rtibia 23.3151
rfoot -15.9602 0.706206
rtoes 15.3949
lfemur -14.3639 9.12206 -17.3205
ltibia 23.8905
lfoot -13.7743 6.31445
ltoes -2.9823
415
root 0.470751 17.5916 6.99177 8.81341 -0.484569 -2.56584
lowerback -2.88404 0.251489 0.623286
upperback 1.45961 0.266806 1.45112
thorax 3.11321 0.130055 1.15722
lowerneck -12.3105 -0.262972 -1.86966
upperneck 35.7629 -0.808719 2.58385
head 14.3318 -0.252734 1.26262
rclavicle -6.26172e-015 -2.28602e-015
rhumerus -30.0154 -17.2038 -77.3337
rradius 24.4285
rwrist 36.9536
rhand -24.3885 -29.0819
rfingers 7.12502
rthumb 2.10214 -59.0513
lclavicle -6.26172e-015 -2.28602e-015
lhumerus -29.7387 -5.78981 90.3182
lradius 25.8009
lwrist 15.009
lhand -28.9525 -7.06594
lfingers 7.12502
lthumb -2.30581 22.9013
rfemur -13.8201 -2.68419 21.2727
rtibia 23.2767
rfoot -15.9275 0.7284
rtoes 15.4228
lfemur -14.3697 9.12862 -17.3146
ltibia 23.819
lfoot -13.7351 6.27667
ltoes -2.91279
416
root 0.466421 17.5939 6.98899 8.83043 -0.474611 -2.54705
lowerback -2.91571 0.270874 0.609395
upperback 1.44987 0.293301 1.43848
thorax 3.12059 0.143114 1.15362
lowerneck -12.2846 -0.27932 -1.8559
upperneck 35.7251 -0.840893 2.59736
head 14.3094 -0.262693 1.26008
rclavicle -4.14963e-015 2.98177e-015
rhumerus -29.828 -17.1069 -77.3895
rradius 24.5594
rwrist 36.6868
rhand -24.3715 -29.0675
rfingers 7.12502
rthumb 2.11861 -59.0367
lclavicle -4.14963e-015 2.98177e-015
lhumerus -29.5942 -5.71031 90.1757
lradius 25.8755
lwrist 14.9739
lhand -29.0473 -7.15223
lfingers 7.12502
lthumb -2.39737 22.814
rfemur -13.8319 -2.73068 21.2718
rtibia 23.2427
rfoot -15.9007 0.769504
rtoes 15.4603
lfemur -14.3613 9.13385 -17.3232
ltibia 23.7408
lfoot -13.6972 6.24146
ltoes -2.84328
417
root 0.462252 17.5961 6.98694 8.84146 -0.471388 -2.52829
lowerback -2.95573 0.290897 0.597248
upperback 1.44733 0.320394 1.42412
thorax 3.14012 0.156504 1.14744
lowerneck -12.2681 -0.296998 -1.85461
upperneck 35.688 -0.876958 2.62614
head 14.2898 -0.273962 1.26544
rclavicle 2.43511e-015 -1.42131e-014
rhumerus -29.6436 -17.0302 -77.448
rradius 24.6771
rwrist 36.4342
rhand -24.3428 -29.0543
rfingers 7.12502
rthumb 2.14626 -59.0232
lclavicle 2.43511e-015 -1.42131e-014
lhumerus -29.4475 -5.63154 90.0308
lradius 25.9279
lwrist 14.9465
lhand -29.1229 -7.19892
lfingers 7.12502
lthumb -2.47039 22.7665
rfemur -13.837 -2.77626 21.2687
rtibia 23.2129
rfoot -15.8781 0.81715
rtoes 15.4983
lfemur -14.3407 9.13457 -17.3314
ltibia 23.6609
lfoot -13.6589 6.21815
ltoes -2.78239
418
root 0.458416 17.5982 6.98476 8.85116 -0.463987 -2.50533
lowerback -3.00434 0.307791 0.586465
upperback 1.45437 0.343062 1.40748
thorax 3.17448 0.167714 1.13806
lowerneck -12.2632 -0.307698 -1.85535
upperneck 35.6414 -0.902496 2.65734
head 14.2682 -0.280601 1.27366
rclavicle 2.48481e-016 4.47266e-015
rhumerus -29.4477 -16.9807 -77.5105
rradius 24.7785
rwrist 36.2147
rhand -24.2969 -29.0334
rfingers 7.12502
rthumb 2.19058 -59.0019
lclavicle 2.48481e-016 4.47266e-015
lhumerus -29.2908 -5.54691 89.8837
lradius 25.96
lwrist 14.9235
lhand -29.1527 -7.17489
lfingers 7.12502
lthumb -2.49917 22.7902
rfemur -13.8438 -2.83424 21.2591
rtibia 23.1901
rfoot -15.8602 0.875488
rtoes 15.5494
lfemur -14.3175 9.12338 -17.3455
ltibia 23.579
lfoot -13.6193 6.20497
ltoes -2.7324
419
root 0.454274 17.6 6.9809 8.85762 -0.46302 -2.48803
lowerback -3.02876 0.325279 0.575872
upperback 1.45623 0.366868 1.39429
thorax 3.18981 0.17948 1.13199
lowerneck -12.2545 -0.31854 -1.86769
upperneck 35.5965 -0.927127 2.69423
head 14.2466 -0.287703 1.2864
rclavicle 6.93262e-015 -5.96354e-016
rhumerus -29.2602 -16.9461 -77.5714
rradius 24.8677
rwrist 36.0304
rhand -24.2405 -29.0037
rfingers 7.12502
rthumb 2.24506 -58.9716
lclavicle 6.93262e-015 -5.96354e-016
lhumerus -29.1451 -5.45921 89.7433
lradius 25.9646
lwrist 14.9047
lhand -29.1676 -7.13408
lfingers 7.12502
lthumb -2.51359 22.8309
rfemur -13.859 -2.8512 21.2557
rtibia 23.1759
rfoot -15.8377 0.903073
rtoes 15.6047
lfemur -14.2979 9.09726 -17.3518
ltibia 23.4986
lfoot -13.5707 6.21302
ltoes -2.67897
420
root 0.450214 17.6013 6.97631 8.85794 -0.460311 -2.46448
lowerback -3.04243 0.340123 0.559552
upperback 1.45855 0.387543 1.38155
thorax 3.19957 0.189564 1.12935
lowerneck -12.2485 -0.325634 -1.88744
upperneck 35.5554 -0.943617 2.72987
head 14.2271 -0.29246 1.30125
rclavicle 5.96354e-015 -2.78299e-015
rhumerus -29.081 -16.9129 -77.6332
rradius 24.9518
rwrist 35.8715
rhand -24.186 -28.9621
rfingers 7.12502
rthumb 2.29773 -58.9295
lclavicle 5.96354e-015 -2.78299e-015
lhumerus -29.0012 -5.36921 89.6102
lradius 25.9345
lwrist 14.883
lhand -29.1519 -7.06221
lfingers 7.12502
lthumb -2.49839 22.9029
rfemur -13.8758 -2.85895 21.244
rtibia 23.1737
rfoot -15.8203 0.921493
rtoes 15.6613
lfemur -14.274 9.0627 -17.3648
ltibia 23.4182
lfoot -13.5228 6.23068
ltoes -2.62409
421
root 0.446236 17.6024 6.97081 8.85129 -0.457899 -2.43641
lowerback -3.03922 0.353179 0.538908
upperback 1.45743 0.406289 1.36982
thorax 3.19623 0.198605 1.1299
lowerneck -12.2404 -0.331121 -1.9093
upperneck 35.5208 -0.954382 2.75749
head 14.2099 -0.296134 1.31419
rclavicle 3.08116e-015 5.96354e-016
rhumerus -28.9186 -16.8736 -77.6945
rradius 25.0353
rwrist 35.7301
rhand -24.119 -28.9214
rfingers 7.12502
rthumb 2.36241 -58.8881
lclavicle 3.08116e-015 5.96354e-016
lhumerus -28.8672 -5.27447 89.4858
lradius 25.8689
lwrist 14.8475
lhand -29.1266 -6.98532
lfingers 7.12502
lthumb -2.47397 22.9801
rfemur -13.8935 -2.85406 21.226
rtibia 23.1821
rfoot -15.8073 0.929383
rtoes 15.7242
lfemur -14.2462 9.02483 -17.3827
ltibia 23.3386
lfoot -13.4773 6.25324
ltoes -2.56259
